<?xml version="1.0" encoding="UTF-8" standalone="no"?>
<!-- Created with Inkscape (http://www.inkscape.org/) -->
<svg
   xmlns:dc="http://purl.org/dc/elements/1.1/"
   xmlns:cc="http://creativecommons.org/ns#"
   xmlns:rdf="http://www.w3.org/1999/02/22-rdf-syntax-ns#"
   xmlns:svg="http://www.w3.org/2000/svg"
   xmlns="http://www.w3.org/2000/svg"
   xmlns:sodipodi="http://sodipodi.sourceforge.net/DTD/sodipodi-0.dtd"
   xmlns:inkscape="http://www.inkscape.org/namespaces/inkscape"
   width="210mm"
   height="297mm"
   id="svg2"
   sodipodi:version="0.32"
   inkscape:version="0.46"
   sodipodi:docname="Zeichnung.svg"
   inkscape:output_extension="org.inkscape.output.svg.inkscape">
  <defs
     id="defs4">
    <inkscape:perspective
       sodipodi:type="inkscape:persp3d"
       inkscape:vp_x="0 : 526.18109 : 1"
       inkscape:vp_y="0 : 1000 : 0"
       inkscape:vp_z="744.09448 : 526.18109 : 1"
       inkscape:persp3d-origin="372.04724 : 350.78739 : 1"
       id="perspective10" />
  </defs>
  <sodipodi:namedview
     id="base"
     pagecolor="#ffffff"
     bordercolor="#666666"
     borderopacity="1.0"
     inkscape:pageopacity="0.0"
     inkscape:pageshadow="2"
     inkscape:zoom="0.35"
     inkscape:cx="350"
     inkscape:cy="520"
     inkscape:document-units="px"
     inkscape:current-layer="layer1"
     showgrid="false" />
  <metadata
     id="metadata7">
    <rdf:RDF>
      <cc:Work
         rdf:about="">
        <dc:format>image/svg+xml</dc:format>
        <dc:type
           rdf:resource="http://purl.org/dc/dcmitype/StillImage" />
      </cc:Work>
    </rdf:RDF>
  </metadata>
  <g
     inkscape:label="Ebene 1"
     inkscape:groupmode="layer"
     id="layer1">
    <path
       transform="scale(0.8044953,1.2430153)"
       style="font-size:456.25994873px;font-style:normal;font-weight:normal;fill:#000000;fill-opacity:1;stroke:none;stroke-width:1px;stroke-linecap:butt;stroke-linejoin:miter;stroke-opacity:1;font-family:Bitstream Vera Sans"
       d="M 476.90625 214.875 C 470.33637 215.15757 463.19491 213.8872 457.23291 217.36502 C 453.20913 220.51197 453.29256 226.10321 452.9611 230.73151 C 452.44514 240.99759 451.48 251.36651 452.9375 261.59375 C 453.61584 264.73055 456.13845 267.26636 459.28435 267.92812 C 466.41532 270.21508 473.96078 268.50981 481.27934 269.09082 C 505.16078 269.58155 529.04308 270.15689 552.89919 271.40262 C 579.62506 272.67021 606.34467 274.15179 633.09375 274.84375 C 610.20474 300.88675 590.06684 329.15715 568.72324 356.44269 C 547.48655 383.95711 526.48446 411.70244 503.45346 437.76183 C 484.08345 460.08166 464.24577 482.14729 447.58527 506.62189 C 442.67356 514.20213 440.38477 523.61716 442.15246 532.55178 C 443.17069 540.78633 444.06031 549.1985 447.125 556.96875 C 449.57808 562.09734 455.31194 564.96418 460.87021 564.78705 C 468.29727 564.84164 475.72442 564.86995 483.15155 565.0326 C 525.93692 565.42678 568.72133 564.7648 611.5061 564.60593 C 640.8747 564.34817 670.25559 564.5489 699.61171 563.54406 C 709.83361 562.96955 720.15048 562.35816 730.15377 560.15115 C 734.79741 557.23909 735.63036 551.15269 735.08804 546.12978 C 734.77517 535.47054 736.34453 524.44538 732.75 514.15625 C 729.6603 509.79816 723.82441 509.43524 718.94702 509.45884 C 675.45337 508.32219 631.94644 507.20259 588.51965 504.4266 C 573.96408 503.57018 559.43825 502.29999 544.90625 501.125 C 568.57879 467.95003 591.22902 433.83861 618.75748 403.65344 C 638.76754 380.91561 658.36467 357.81687 677.85597 334.63422 C 696.03223 312.54563 713.68068 289.86575 727.57428 264.81216 C 730.26773 259.7899 731.97171 254.09406 731.25 248.34375 C 730.7663 240.80003 729.13751 233.30269 728.70088 225.80125 C 727.91518 220.9602 724.0495 216.2384 718.86846 216.06326 C 711.6133 215.28585 704.29728 215.72567 697.01777 215.3826 C 670.27002 214.76318 643.51437 214.78175 616.76138 214.91556 C 580.41458 215.05954 544.06667 215.24559 507.72049 214.88899 C 497.4491 214.84393 487.17767 214.82106 476.90625 214.875 z M 248.3125 291.75 C 238.45679 292.21138 228.496 291.44007 218.72268 292.99441 C 211.46834 295.20544 206.55616 302.66814 206.74233 310.1571 C 206.324 317.51844 206.31855 324.91086 206.60893 332.27593 C 207.0629 337.31394 208.03577 342.68551 211.28125 346.71875 C 217.00342 352.13984 225.26965 353.01426 232.78114 353.3337 C 265.06385 355.92234 297.49227 357.60743 329.875 356.125 C 303.1011 383.75983 281.98494 416.10582 257.83139 445.921 C 241.07317 467.14779 223.5609 487.91436 209.23826 510.91705 C 204.86944 520.15721 205.98348 530.73279 207.47619 540.51269 C 208.27999 546.20407 208.25469 552.42152 211.59801 557.34801 C 215.66612 561.61138 222.04792 561.45951 227.49058 561.2238 C 279.95659 562.06404 332.44722 560.13987 384.89917 562.10105 C 394.30258 562.30177 403.68849 563.09027 413.09375 563.125 C 417.3059 563.10428 421.91619 561.82499 424.31963 558.08751 C 428.1728 552.89896 427.9424 546.17456 428.56429 540.05379 C 429.39577 531.97509 430.61082 523.3855 427.40625 515.65625 C 424.12024 509.44739 416.575 506.65088 409.84131 507.4128 C 401.74848 507.71058 393.66698 508.32327 385.56305 508.24432 C 354.54188 508.79546 323.51889 508.01094 292.5 507.65625 C 296.93561 500.79229 302.62098 494.86899 307.49536 488.33027 C 329.21724 461.40193 351.58253 434.99695 374.43963 409.02688 C 391.05907 389.51725 407.44427 369.61012 420.59211 347.54369 C 425.25316 337.31834 424.04907 325.8128 424.01411 314.90329 C 423.89192 309.82397 423.55991 304.33769 420.61647 300.02272 C 416.18065 295.54108 409.38815 295.28684 403.47816 295.62101 C 356.14996 295.35133 308.89217 292.30877 261.57189 291.6875 C 257.15193 291.69183 252.73188 291.66167 248.3125 291.75 z "
       id="text2664"
       inkscape:export-filename="/home/jhasse/Programmieren/python/notifyme/notifyme.png"
       inkscape:export-xdpi="48"
       inkscape:export-ydpi="48" />
  </g>
</svg>
