<?xml version="1.0" encoding="UTF-8" standalone="no"?>
<!-- Created with Inkscape (http://www.inkscape.org/) -->

<svg
   xmlns:dc="http://purl.org/dc/elements/1.1/"
   xmlns:cc="http://creativecommons.org/ns#"
   xmlns:rdf="http://www.w3.org/1999/02/22-rdf-syntax-ns#"
   xmlns:svg="http://www.w3.org/2000/svg"
   xmlns="http://www.w3.org/2000/svg"
   xmlns:sodipodi="http://sodipodi.sourceforge.net/DTD/sodipodi-0.dtd"
   xmlns:inkscape="http://www.inkscape.org/namespaces/inkscape"
   width="600"
   height="600"
   id="svg2"
   sodipodi:version="0.32"
   inkscape:version="0.48.4 r9939"
   sodipodi:docname="logo.svg"
   inkscape:output_extension="org.inkscape.output.svg.inkscape"
   version="1.1"
   inkscape:export-filename="/home/jhasse/git/notifyme/share/notifyme/logo.png"
   inkscape:export-xdpi="90"
   inkscape:export-ydpi="90">
  <defs
     id="defs4">
    <inkscape:perspective
       sodipodi:type="inkscape:persp3d"
       inkscape:vp_x="0 : 526.18109 : 1"
       inkscape:vp_y="0 : 1000 : 0"
       inkscape:vp_z="744.09448 : 526.18109 : 1"
       inkscape:persp3d-origin="372.04724 : 350.78739 : 1"
       id="perspective10" />
  </defs>
  <sodipodi:namedview
     id="base"
     pagecolor="#ffffff"
     bordercolor="#666666"
     borderopacity="1.0"
     inkscape:pageopacity="0.0"
     inkscape:pageshadow="2"
     inkscape:zoom="0.35"
     inkscape:cx="184.15143"
     inkscape:cy="170.13541"
     inkscape:document-units="px"
     inkscape:current-layer="layer1"
     showgrid="false"
     inkscape:window-width="1335"
     inkscape:window-height="1026"
     inkscape:window-x="65"
     inkscape:window-y="24"
     inkscape:window-maximized="1"
     fit-margin-top="0"
     fit-margin-left="0"
     fit-margin-right="0"
     fit-margin-bottom="0" />
  <metadata
     id="metadata7">
    <rdf:RDF>
      <cc:Work
         rdf:about="">
        <dc:format>image/svg+xml</dc:format>
        <dc:type
           rdf:resource="http://purl.org/dc/dcmitype/StillImage" />
        <dc:title></dc:title>
      </cc:Work>
    </rdf:RDF>
  </metadata>
  <g
     inkscape:label="Ebene 1"
     inkscape:groupmode="layer"
     id="layer1"
     transform="translate(-165.84857,-102.4976)">
    <path
       style="font-size:456.25994873px;font-style:normal;font-weight:normal;fill:#dfd8c8;fill-opacity:1;stroke:none;font-family:Bitstream Vera Sans"
       d="m 472.24026,204.23115 c -5.28544,0.31436 -11.03071,-1.09895 -15.82711,2.77019 -3.23711,3.50105 -3.16999,9.72143 -3.43665,14.8705 -0.41509,11.42124 -1.19154,22.95687 -0.019,34.3349 0.54572,3.48975 2.57514,6.3109 5.10601,7.04712 5.73683,2.54429 11.80712,0.64714 17.69486,1.29352 19.21251,0.54596 38.42571,1.18603 57.61784,2.57193 21.50083,1.41022 42.99663,3.05852 64.51614,3.82833 -18.4141,28.97339 -34.61494,60.4248 -51.78577,90.78054 -17.08482,30.61037 -33.9809,61.47764 -52.50923,90.46926 -15.58308,24.83128 -31.5424,49.37975 -44.9457,76.60827 -3.95145,8.43317 -5.79277,18.90759 -4.37067,28.84755 0.81916,9.16111 1.53486,18.51982 4.00039,27.16438 1.97349,5.70567 6.58635,8.89509 11.05795,8.69803 5.97504,0.0608 11.95015,0.0922 17.92524,0.27318 34.42063,0.43853 68.84048,-0.29794 103.26063,-0.47468 23.6269,-0.28676 47.26369,-0.0634 70.88055,-1.18136 8.22347,-0.63915 16.52334,-1.31933 24.57094,-3.77467 3.73579,-3.23973 4.40589,-10.01098 3.9696,-15.59907 -0.2517,-11.85863 1.01084,-24.12435 -1.88094,-35.57123 -2.48565,-4.84847 -7.1806,-5.25223 -11.10444,-5.22597 -34.99043,-1.26454 -69.99155,-2.51012 -104.9282,-5.59847 -11.70989,-0.95279 -23.39585,-2.3659 -35.08678,-3.6731 19.04445,-36.90786 37.26645,-74.85752 59.41297,-108.43916 16.098,-25.29632 31.8638,-50.99415 47.54446,-76.78534 14.62271,-24.57402 28.82081,-49.80586 39.99814,-77.67852 2.16687,-5.58736 3.53772,-11.92411 2.9571,-18.32144 -0.38913,-8.39255 -1.69948,-16.7335 -2.05075,-25.07902 -0.63209,-5.38576 -3.74201,-10.63886 -7.91014,-10.83371 -5.83674,-0.86489 -11.72244,-0.37558 -17.57877,-0.75725 -21.51844,-0.68912 -43.04324,-0.66846 -64.56589,-0.51959 -29.24083,0.16018 -58.48256,0.36717 -87.72289,-0.0296 -8.26328,-0.0502 -16.5266,-0.0755 -24.78991,-0.0156 z m -183.9026,85.52505 c -7.92887,0.51329 -15.94228,-0.3448 -23.80487,1.38443 -5.83608,2.45982 -9.7879,10.76223 -9.63813,19.09386 -0.33655,8.18964 -0.34093,16.41387 -0.10732,24.60766 0.36522,5.60489 1.14788,11.58088 3.75886,16.06795 4.60346,6.03107 11.2536,7.00388 17.29656,7.35926 25.97129,2.87992 52.0598,4.75462 78.11155,3.10538 -21.53947,30.74434 -38.52733,66.72993 -57.95874,99.89994 -13.48191,23.61526 -27.57045,46.7185 -39.09295,72.30948 -3.51469,10.27988 -2.61845,22.04542 -1.41757,32.92577 0.64665,6.33178 0.6263,13.24883 3.31598,18.72965 3.27278,4.74309 8.4069,4.57413 12.7855,4.3119 42.20866,0.93479 84.43712,-1.2059 126.63447,0.97596 7.565,0.2233 15.11592,1.10053 22.68241,1.13917 3.38865,-0.023 7.09761,-1.4463 9.03116,-5.60432 3.09986,-5.77237 2.91451,-13.25341 3.41481,-20.06289 0.66892,-8.98773 1.64643,-18.54383 -0.93163,-27.14278 -2.64358,-6.90748 -8.71369,-10.01866 -14.13092,-9.17101 -6.51064,0.33128 -13.01217,1.01292 -19.53174,0.92508 -24.95639,0.61316 -49.91424,-0.25964 -74.86879,-0.65424 3.56843,-7.6363 8.14228,-14.2261 12.0637,-21.50056 17.47515,-29.95835 35.46792,-59.33444 53.85635,-88.22669 13.37026,-21.70487 26.55208,-43.85198 37.12945,-68.40134 3.74979,-11.37592 2.78111,-24.17608 2.75298,-36.31314 -0.0983,-5.65085 -0.3654,-11.75445 -2.73338,-16.55494 -3.5686,-4.98592 -9.03313,-5.26877 -13.78769,-4.897 -38.07532,-0.30002 -76.09399,-3.68493 -114.16293,-4.37611 -3.55584,0.004 -7.11174,-0.0287 -10.66712,0.0695 z"
       id="text2664"
       inkscape:export-filename="/home/jhasse/Programmieren/python/notifyme/notifyme.png"
       inkscape:export-xdpi="48"
       inkscape:export-ydpi="48"
       inkscape:connector-curvature="0" />
  </g>
</svg>
